<?xml version="1.0" encoding="UTF-8"?>
<svg id="Layer_2" data-name="Layer 2" xmlns="http://www.w3.org/2000/svg" viewBox="0 0 76.95 71.87">
  <defs>
    <style>
      .cls-1 {
        fill: #156252;
      }
    </style>
  </defs>
  <g id="Layer_2-2" data-name="Layer 2">
    <g>
      <path class="cls-1" d="M17.74,57.75l19.08-27.49c.47-.68.3-1.62-.38-2.09s-1.62-.3-2.09.38l-19.01,27.38-2.96-2.05,21.49-30.96,2.08,1.44,2.11,1.46s0,0,0,0l2.39,1.66c.6.42,1.3.63,2.02.63.21,0,.42-.02.64-.06.93-.17,1.74-.69,2.28-1.47l.32-.46c7.05,5.77,12.27,13.38,15.15,22.1.3.92,1.13,1.5,2.05,1.5.14,0,.29-.01.44-.04,1.09-.22,1.82-1.17,1.74-2.28-.82-11.28-5.43-22.05-13-30.46l.39-.56c.54-.78.75-1.72.58-2.65-.17-.93-.69-1.74-1.47-2.28l-1.16-.81.24-.35c.73-1.05,1.01-2.33.78-3.59s-.93-2.36-1.99-3.09c-2.17-1.51-5.17-.97-6.68,1.21l-.24.35-1.16-.8c-1.58-1.1-3.74-.72-4.87.82-.24-.12-.47-.25-.71-.36C26.56.5,16.35-.96,6.3.61c-1.06.17-1.99.79-2.54,1.72-.55.92-.65,2.03-.29,3.04l2.82,7.8c.56,1.55,2.11,2.51,3.77,2.33,6.31-.69,12.59-.1,18.69,1.7-.1,1.22.42,2.45,1.5,3.2l1.16.8-21.57,31.07c-.95-.27-2.01.06-2.6.92L.95,62.28c-.81,1.16-1.11,2.57-.86,3.97s1.03,2.61,2.2,3.42l1.81,1.26c.9.62,1.94.95,3.01.95.32,0,.64-.03.95-.09,1.39-.25,2.61-1.03,3.42-2.2l6.31-9.08c.36-.52.5-1.15.39-1.78-.07-.36-.22-.69-.43-.98ZM47.44,23.66l2.91-4.18c5.35,6.13,9.06,13.54,10.78,21.44-3.24-6.68-7.89-12.55-13.69-17.26ZM45.01,6.89l.24-.35c.57-.82,1.69-1.02,2.5-.45.39.27.66.69.74,1.16s-.02.95-.29,1.34l-.24.35-1.48-1.03-1.48-1.03ZM9.75,12.52c-.29.03-.54-.12-.63-.37l-2.82-7.8c-.08-.22,0-.4.05-.49.05-.09.18-.25.42-.28,9.46-1.48,19.06-.11,27.77,3.97.08.04.17.08.25.12l-4.71,6.78c-4.86-1.49-9.82-2.23-14.83-2.23-1.83,0-3.67.1-5.5.3ZM31.97,17.94c-.13-.09-.2-.22-.23-.36l.34-.72c.03-.06.05-.12.09-.17l.7-1.01,6.04-8.7c.17-.25.51-.31.76-.14l7.42,5.15,1.63,1.13h0s1.16.8,1.16.8c.16.11.21.27.23.35.01.08.02.25-.09.41l-7.08,10.2c-.11.16-.27.21-.35.23-.08.02-.25.02-.41-.09l-5.7-3.95-3.35-2.32h0s-1.16-.8-1.16-.8ZM9.01,67.88c-.35.51-.88.84-1.48.95-.6.11-1.22-.02-1.72-.38l-1.82-1.26c-.51-.35-.84-.88-.95-1.48-.11-.61.02-1.22.38-1.72l5.92-8.53,5.6,3.89-5.92,8.53Z"/>
      <path class="cls-1" d="M75.98,49l-7.02-7.87c-.55-.62-1.5-.67-2.12-.12-.62.55-.67,1.5-.12,2.12l7.02,7.87c.13.15.21.34.21.54v11.18c0,.45-.36.81-.81.81H27.89c-.49,0-.69-.35-.75-.5-.06-.15-.17-.54.18-.88l7.14-7.14c1.64-1.64,3.82-2.54,6.14-2.54h.81l4.59,4.59c.29.29.68.44,1.06.44s.77-.15,1.06-.44c.59-.59.59-1.54,0-2.12l-2.91-2.91c.34-.18.66-.39.94-.67l7.41-7.41v15.67c0,.83.67,1.5,1.5,1.5s1.5-.67,1.5-1.5v-18.24c0-.83-.67-1.5-1.5-1.5-.02,0-.03,0-.04,0-.02,0-.03,0-.04,0-1.02,0-1.97.4-2.69,1.12l-8.25,8.25c-.15.15-.36.24-.57.24h-2.85c-3.12,0-6.06,1.22-8.27,3.42l-7.14,7.14c-1.09,1.09-1.42,2.72-.83,4.15.59,1.43,1.97,2.35,3.52,2.35h45.25c2.1,0,3.81-1.71,3.81-3.81v-11.18c0-.94-.34-1.84-.97-2.54Z"/>
    </g>
  </g>
</svg>