<?xml version="1.0" encoding="UTF-8"?>
<svg id="Layer_2" data-name="Layer 2" xmlns="http://www.w3.org/2000/svg" viewBox="0 0 116.34 84.9">
  <defs>
    <style>
      .cls-1 {
        fill: #156252;
      }
    </style>
  </defs>
  <g id="Layer_2-2" data-name="Layer 2">
    <g>
      <path class="cls-1" d="M21.3,21.86c.38,0,.77-.15,1.06-.44l11.85-11.85c.43-.43.89-.81,1.38-1.14,0,0,0,.02.02.03l6.84,6.84c.29.29.68.44,1.06.44s.77-.15,1.06-.44c.59-.59.59-1.54,0-2.12l-6.06-6.06c.78-.2,1.58-.32,2.41-.32h9.86c2.53,0,4.91.99,6.7,2.78l3.91,3.91c.33.33.63.69.9,1.06l-5.22,5.22c-.59.59-.59,1.54,0,2.12.29.29.68.44,1.06.44s.77-.15,1.06-.44l4.53-4.53c.28.91.43,1.86.43,2.84,0,.83.67,1.5,1.5,1.5s1.5-.67,1.5-1.5c0-3.33-1.3-6.47-3.66-8.82l-3.91-3.91c-2.36-2.36-5.49-3.66-8.83-3.66h-9.86c-3.33,0-6.47,1.3-8.83,3.66l-11.85,11.85c-.59.59-.59,1.54,0,2.12.29.29.68.44,1.06.44Z"/>
      <path class="cls-1" d="M114.84,81.9h-2.68v-4.26c0-2.28-1.86-4.14-4.14-4.14h-1.17v-34.51h2.79c1.17,0,2.25-.54,2.95-1.48.7-.94.92-2.12.59-3.25l-4.03-13.8c-1.62-5.56-4.84-10.45-9.3-14.14l-6.13-5.07c-1.4-1.16-3.29-1.54-5.04-1.02l-6.49,1.94c-1.93.58-3.38,2.16-3.77,4.14l-1.26,6.21c-.34,1.68.16,3.44,1.34,4.69l1.07,1.14-33.87,17.1c-.04-.05-.06-.12-.11-.16-2.14-2.14-5.79-4.94-8.76-6.03l-14.44-5.31c-3.97-1.46-8.45-.95-11.98,1.37l-3.91,2.56c-4.06,2.65-6.48,7.13-6.48,11.99v13.36c0,2.93,2.38,5.31,5.31,5.31h20.32c.83,0,1.5-.67,1.5-1.5s-.67-1.5-1.5-1.5H5.31c-1.28,0-2.31-1.04-2.31-2.31v-13.36c0-3.83,1.92-7.38,5.12-9.47l3.91-2.56c.14-.09.28-.16.42-.24.01.01.02.03.03.05l12.45,12.45c.29.29.68.44,1.06.44s.77-.15,1.06-.44c.59-.59.59-1.54,0-2.12l-11.58-11.58c1.93-.43,3.97-.31,5.85.38l14.44,5.31c2.21.81,5.11,2.93,7.11,4.79l-9.83,4.96c-1.92.96-3.11,2.88-3.11,5.03v5.98c0,1.43.72,2.74,1.94,3.5.67.42,1.42.63,2.18.63.62,0,1.24-.14,1.81-.42l.6-.29v11.14h-1.07c-2.28,0-4.14,1.86-4.14,4.14v10.4h-5.26c-.83,0-1.5.67-1.5,1.5s.67,1.5,1.5,1.5h88.83c.83,0,1.5-.67,1.5-1.5s-.67-1.5-1.5-1.5ZM109.16,77.64v3.63h-7.43v-3.63c0-.63.51-1.14,1.14-1.14h5.14c.63,0,1.14.51,1.14,1.14ZM80.1,13.11l1.26-6.21c.18-.89.83-1.6,1.7-1.86l6.49-1.94c.78-.23,1.63-.06,2.26.46l6.13,5.07c4,3.31,6.88,7.69,8.34,12.67l4.03,13.8c.08.29-.03.5-.11.6-.08.1-.25.28-.55.28h-9.03c-.19,0-.37-.08-.5-.22l-6.92-7.35h0s-9.83-10.43-9.83-10.43l-2.67-2.84c-.51-.54-.73-1.3-.58-2.03ZM97.92,37.82c.69.74,1.67,1.16,2.68,1.16h3.24v34.51h-.98c-2.28,0-4.14,1.86-4.14,4.14v4.26h-5.73l-18.89-38.07c1.76-1.48,2.89-3.69,2.89-6.17,0-.43-.04-.85-.11-1.26l13.47-6.6,7.56,8.03ZM63.11,43.16c.34.36.72.69,1.12.99v37.75h-3.63v-37.51l2.51-1.23ZM69.89,32.72c.09.02.19.04.28.07.21.05.41.11.6.19.09.04.19.07.28.12.2.09.4.2.58.32.06.04.13.07.19.12.25.17.48.36.69.57.02.02.04.05.07.08.18.19.34.39.49.6.06.09.11.18.17.27.1.16.19.32.26.49.06.12.11.24.15.36.21.56.34,1.15.34,1.78,0,2.02-1.2,3.75-2.92,4.55-.07.03-.14.08-.22.11-.23.09-.47.16-.72.22-.13.03-.27.06-.41.08-.15.02-.3.04-.45.05-.22.01-.44.01-.66,0-.15-.01-.3-.02-.45-.05-.14-.02-.27-.05-.41-.08-.24-.06-.49-.13-.72-.22-.07-.03-.14-.07-.22-.11-1.1-.52-1.99-1.41-2.48-2.53-.03-.07-.06-.15-.08-.22-.08-.21-.15-.43-.2-.65-.02-.08-.04-.17-.06-.25-.05-.3-.09-.6-.09-.91,0-2.78,2.26-5.04,5.04-5.04.32,0,.62.04.92.09ZM67.23,45.51s.02,0,.03,0c.25.05.5.09.76.12.03,0,.05,0,.08.01.28.03.57.05.86.05s.58-.02.86-.05c.03,0,.05,0,.08-.01.26-.03.51-.07.76-.12.01,0,.02,0,.03,0v35.76h-3.47v-35.76ZM73.7,69.66h9.89l3.06,6.16h-12.94v-6.16ZM73.7,66.66v-6.16h5.34l3.06,6.16h-8.4ZM73.7,57.5v-7.76l3.85,7.76h-3.85ZM73.7,78.82h14.08c.11,0,.23-.02.33-.04l1.54,3.11h-15.96v-3.07ZM34.57,53.81c-.51.25-.93.04-1.08-.06-.16-.1-.53-.39-.53-.95v-5.98c0-1,.56-1.9,1.46-2.34l47.3-23.87,6.5,6.9-12.33,6.05s-.06-.08-.09-.13c-.12-.2-.25-.39-.39-.57-.06-.08-.12-.16-.18-.24-.18-.23-.38-.45-.59-.65-.07-.07-.15-.13-.22-.2-.15-.14-.31-.28-.47-.41-.1-.08-.2-.15-.3-.22-.16-.12-.33-.22-.49-.33-.09-.06-.18-.12-.28-.17-.26-.15-.53-.28-.81-.4-.05-.02-.11-.04-.16-.06-.24-.09-.49-.18-.74-.25-.09-.03-.19-.05-.28-.07-.22-.06-.45-.1-.68-.14-.09-.01-.18-.03-.28-.04-.32-.04-.64-.06-.97-.06-4.43,0-8.04,3.61-8.04,8.04,0,.27.01.53.04.79,0,.1.03.19.04.28.02.16.04.33.08.49.02.11.05.21.08.32.04.15.07.29.11.44.03.11.07.21.11.32.04.11.07.21.11.32l-22,10.79v-5.04c0-.83-.67-1.5-1.5-1.5s-1.5.67-1.5,1.5v6.51l-1.92.94ZM34.27,71.5c0-.63.51-1.14,1.14-1.14h5.14c.63,0,1.14.51,1.14,1.14v9.77h-7.43v-9.77ZM40.56,67.35h-1.07v-12.61l18.12-8.88v36.03h-12.9v-10.4c0-2.28-1.86-4.14-4.14-4.14Z"/>
      <path class="cls-1" d="M68.96,39.59c1.06,0,1.93-.86,1.93-1.93s-.86-1.93-1.93-1.93-1.93.86-1.93,1.93.86,1.93,1.93,1.93Z"/>
    </g>
  </g>
</svg>