<svg width="63" height="63" viewBox="0 0 137 138" fill="none" xmlns="http://www.w3.org/2000/svg">
    <defs>
        <style>
          .cls-1 {
            fill: #BBDA50;
          }
          .cls-2 {
            stroke: #BBDA50
          }
        </style>
      </defs>
  <path class="cls-1 cls-2" d="M71.259 34.2888C64.7853 34.2888 59.5667 40.2768 59.5667 47.5769C59.5667 54.877 64.7865 60.865 71.259 60.865C77.7315 60.8648 82.9504 54.8757 82.9504 47.5769C82.9504 40.2781 77.7315 34.289 71.259 34.2888ZM71.259 38.1394C75.5513 38.1396 79.1067 42.3301 79.1067 47.5769C79.1067 52.8238 75.5513 57.0142 71.259 57.0144C66.9667 57.0144 63.4104 52.8183 63.4104 47.5769C63.4104 42.3355 66.9667 38.1394 71.259 38.1394Z" stroke-width="0.43534"/>
  <path class="cls-1 cls-2" d="M49.4788 33.4327L49.176 33.4376C42.844 33.6206 37.7864 39.5347 37.7864 46.7208C37.7864 54.0209 43.0062 60.0089 49.4788 60.0089H49.4807C52.2883 59.9821 54.9774 58.8714 56.9885 56.9083V56.9073C57.1262 56.7783 57.2449 56.6307 57.3391 56.4679L57.426 56.298C57.5048 56.1241 57.5567 55.9397 57.5813 55.7511L57.5969 55.5616C57.6048 55.3075 57.5623 55.0542 57.4719 54.8165L57.3958 54.6417C57.3109 54.4715 57.2008 54.3144 57.0696 54.1759C56.8947 53.9915 56.6847 53.8441 56.4524 53.7413L56.2747 53.673C56.0942 53.6137 55.9056 53.5812 55.7151 53.5773L55.5256 53.5831C55.3362 53.598 55.1494 53.6411 54.9719 53.7111L54.7991 53.7892C54.6864 53.8471 54.5799 53.9163 54.4807 53.9952L54.3381 54.1202L54.3362 54.1222L54.0881 54.3575C52.8249 55.4986 51.186 56.1406 49.4778 56.1573C45.1857 56.157 41.6301 51.962 41.6301 46.7208C41.6301 41.4797 45.1857 37.2837 49.4778 37.2833C51.3 37.3012 53.0436 38.032 54.3362 39.3195L54.3372 39.3214L54.4895 39.1652L54.3381 39.3214C54.4748 39.4543 54.6302 39.5657 54.7991 39.6525L54.9719 39.7306C55.2083 39.8238 55.461 39.8695 55.7151 39.8644C55.9056 39.8605 56.0942 39.8279 56.2747 39.7687L56.4524 39.7003C56.6267 39.6232 56.7882 39.5209 56.9319 39.3966L57.0696 39.2657C57.2445 39.0812 57.3814 38.8629 57.4719 38.6251C57.5623 38.3875 57.6048 38.1342 57.5969 37.88L57.5813 37.6896C57.5567 37.5013 57.5047 37.3172 57.426 37.1437L57.3391 36.9738C57.2439 36.8093 57.1241 36.6594 56.9846 36.5294C54.9739 34.5687 52.2865 33.4595 49.4807 33.4327H49.4788Z" stroke-width="0.43534"/>
  <path class="cls-1" d="M98.2847 58.9396C98.2847 59.3925 98.1051 59.8268 97.7856 60.1471C97.466 60.4673 97.0326 60.6472 96.5806 60.6472H88.3659C87.9677 60.6476 87.5777 60.5345 87.2412 60.3212C86.9047 60.1078 86.6356 59.8031 86.4654 59.4424C86.2951 59.0817 86.2307 58.6799 86.2795 58.2839C86.3284 57.888 86.4886 57.514 86.7414 57.2058L92.7715 49.8458C92.973 49.5952 93.0998 49.2927 93.1372 48.973C93.1746 48.6534 93.121 48.3296 92.9828 48.0391C92.8716 47.7824 92.6882 47.5636 92.455 47.4095C92.2218 47.2555 91.9488 47.1728 91.6695 47.1717C91.1174 47.1723 90.5881 47.3923 90.1977 47.7835C89.8073 48.1747 89.5878 48.7051 89.5872 49.2584C89.5872 49.7113 89.4076 50.1456 89.0881 50.4659C88.7685 50.7861 88.335 50.966 87.8831 50.966C87.4312 50.966 86.9977 50.7861 86.6782 50.4659C86.3586 50.1456 86.179 49.7113 86.179 49.2584C86.1823 48.5292 86.3295 47.8078 86.6122 47.1359C86.8949 46.4639 87.3075 45.8547 87.8262 45.3433C88.3449 44.8318 88.9595 44.4283 89.6345 44.156C90.3095 43.8836 91.0316 43.7478 91.7593 43.7564C92.6741 43.7715 93.5658 44.0471 94.3302 44.5511C95.0946 45.055 95.7002 45.7665 96.0762 46.6024C96.4891 47.4748 96.6456 48.4468 96.5275 49.405C96.4095 50.3632 96.0216 51.2679 95.4094 52.0134L91.1333 57.232H96.5863C97.0372 57.2335 97.4692 57.414 97.7876 57.7341C98.1059 58.0542 98.2847 58.4877 98.2847 58.9396Z" fill="#BBDA50"/>
  <path class="cls-1 cls-2" d="M70.4937 0.821289C62.9836 0.440837 55.5839 2.82544 49.6958 7.53906L49.1313 8.00098C43.369 12.8417 39.5644 19.6341 38.4487 27.1025L38.4243 27.3496C38.4164 27.5144 38.4245 27.6796 38.4487 27.8428L38.4976 28.0859C38.558 28.3267 38.6537 28.5565 38.7808 28.7686L38.9175 28.9746C39.0654 29.1742 39.2422 29.3506 39.4409 29.498L39.646 29.6357C39.8587 29.7633 40.089 29.8579 40.3286 29.918L40.5718 29.9668C40.8989 30.0151 41.2326 29.9977 41.5532 29.917C41.7935 29.8564 42.0232 29.7611 42.2349 29.6338L42.4409 29.4961C42.7063 29.2985 42.9304 29.0499 43.1001 28.7656C43.2696 28.4817 43.3819 28.1671 43.4302 27.8398L43.5278 27.2363C44.5735 21.2272 47.7069 15.7815 52.3726 11.8643L52.8442 11.4775C57.7708 7.53591 63.9617 5.54303 70.2437 5.8623L70.8511 5.90039C77.1376 6.36907 83.0282 9.12764 87.4165 13.6436L87.8364 14.0859C92.265 18.8639 94.7276 25.1429 94.731 31.6641L94.7241 32.2949C94.6895 33.7649 94.5308 35.2298 94.2505 36.6738L94.2241 36.8359C94.1825 37.1606 94.2045 37.4904 94.2886 37.8066L94.3364 37.9639C94.4589 38.3274 94.6621 38.6576 94.9302 38.9297L95.0483 39.042C95.3343 39.2968 95.6743 39.4827 96.0415 39.5859L96.2007 39.625C96.6289 39.7157 97.074 39.6934 97.4907 39.5596V39.5586C100.592 38.5674 103.851 38.1744 107.095 38.3975L107.745 38.4502C110.986 38.7556 114.139 39.6735 117.037 41.1523L117.613 41.4551C120.476 43.0084 123.018 45.09 125.106 47.5879L125.518 48.0938C127.545 50.6468 129.07 53.5597 130.015 56.6777L130.197 57.3047C131.122 60.6593 131.362 64.1665 130.902 67.6162L130.807 68.2617C130.295 71.48 129.18 74.5745 127.519 77.3809L127.18 77.9375C125.451 80.6975 123.216 83.1071 120.591 85.0371C117.792 87.0954 114.606 88.5661 111.226 89.3613H111.225C110.622 89.5001 110.09 89.8571 109.733 90.3633L109.608 90.5586C109.377 90.9582 109.261 91.4136 109.271 91.875L109.287 92.1064C109.348 92.6455 109.581 93.1483 109.948 93.542L110.113 93.7041C110.575 94.1166 111.173 94.3427 111.792 94.3418V94.3428C111.984 94.3432 112.176 94.3214 112.363 94.2773V94.2764C118.939 92.7654 124.828 89.1258 129.124 83.9287L129.535 83.4209C133.862 77.9528 136.204 71.1713 136.173 64.1924C136.17 59.6325 135.16 55.1299 133.216 51.0068L132.842 50.2393C130.917 46.4309 128.224 43.0604 124.93 40.3428L124.264 39.8086C120.902 37.1872 117.032 35.2894 112.896 34.2393C108.576 33.1423 104.072 32.9988 99.6919 33.8125C99.7412 33.0986 99.7671 32.3806 99.7671 31.6641L99.7583 30.9346C99.578 23.4017 96.6546 16.1846 91.5259 10.6514L91.0239 10.1221C85.7779 4.72376 78.7358 1.42636 71.2202 0.867188L70.4937 0.821289Z" stroke-width="0.43534"/>
  <mask id="path-5-inside-1_205_52" fill="white">
    <path class="cls-1" fill-rule="evenodd" clip-rule="evenodd" d="M41.2691 101.194V131.47C41.2691 132.071 41.7564 132.558 42.3575 132.558H96.775C97.376 132.558 97.8633 132.071 97.8633 131.47V101.194H41.2691ZM35.8274 81.1419C35.8274 77.5354 38.751 74.6118 42.3575 74.6118H96.775C100.381 74.6118 103.305 77.5354 103.305 81.1419V131.47C103.305 135.076 100.381 138 96.775 138H42.3575C38.751 138 35.8274 135.076 35.8274 131.47V81.1419Z"/>
  </mask>
  <path class="cls-1" fill-rule="evenodd" clip-rule="evenodd" d="M41.2691 101.194V131.47C41.2691 132.071 41.7564 132.558 42.3575 132.558H96.775C97.376 132.558 97.8633 132.071 97.8633 131.47V101.194H41.2691ZM35.8274 81.1419C35.8274 77.5354 38.751 74.6118 42.3575 74.6118H96.775C100.381 74.6118 103.305 77.5354 103.305 81.1419V131.47C103.305 135.076 100.381 138 96.775 138H42.3575C38.751 138 35.8274 135.076 35.8274 131.47V81.1419Z" fill="#BBDA50"/>
  <path class="cls-1" d="M41.2691 101.194V99.0173H39.0924V101.194H41.2691ZM97.8633 101.194H100.04V99.0173H97.8633V101.194ZM39.0924 101.194V131.47H43.4458V101.194H39.0924ZM39.0924 131.47C39.0924 133.273 40.5542 134.735 42.3575 134.735V130.381C42.9586 130.381 43.4458 130.869 43.4458 131.47H39.0924ZM42.3575 134.735H96.775V130.381H42.3575V134.735ZM96.775 134.735C98.5782 134.735 100.04 133.273 100.04 131.47H95.6866C95.6866 130.869 96.1739 130.381 96.775 130.381V134.735ZM100.04 131.47V101.194H95.6866V131.47H100.04ZM97.8633 99.0173H41.2691V103.371H97.8633V99.0173ZM42.3575 72.4351C37.5489 72.4351 33.6507 76.3333 33.6507 81.1419H38.0041C38.0041 78.7376 39.9532 76.7885 42.3575 76.7885V72.4351ZM96.775 72.4351H42.3575V76.7885H96.775V72.4351ZM105.482 81.1419C105.482 76.3333 101.584 72.4351 96.775 72.4351V76.7885C99.1793 76.7885 101.128 78.7376 101.128 81.1419H105.482ZM105.482 131.47V81.1419H101.128V131.47H105.482ZM96.775 140.177C101.584 140.177 105.482 136.278 105.482 131.47H101.128C101.128 133.874 99.1793 135.823 96.775 135.823V140.177ZM42.3575 140.177H96.775V135.823H42.3575V140.177ZM33.6507 131.47C33.6507 136.278 37.5489 140.177 42.3575 140.177V135.823C39.9532 135.823 38.0041 133.874 38.0041 131.47H33.6507ZM33.6507 81.1419V131.47H38.0041V81.1419H33.6507Z" fill="#BBDA50" mask="url(#path-5-inside-1_205_52)"/>
  <rect class="cls-1 cls-2" x="51.229" y="67.5211" width="6.00241" height="12.1367" rx="3.00121" stroke-width="2.1767"/>
  <rect class="cls-1 cls-2" x="83.9455" y="67.5211" width="6.00241" height="12.1367" rx="3.00121" stroke-width="2.1767"/>
  <mask id="path-9-outside-2_205_52" maskUnits="userSpaceOnUse" x="0" y="32.422" width="34" height="63" fill="black">
    <rect class="cls-1" fill="white" y="32.422" width="34" height="63"/>
    <path class="cls-1" fill-rule="evenodd" clip-rule="evenodd" d="M32.86 34.6365C33.0138 34.0216 32.5626 33.4203 31.9288 33.422C24.5216 33.4194 17.3596 36.0819 11.7461 40.9248C6.13254 45.7677 2.44059 52.4693 1.34201 59.81C0.243426 67.1507 1.81122 74.6427 5.76013 80.9227C9.70903 87.2028 15.7766 91.8534 22.8587 94.0284C23.1489 94.1222 23.4547 94.1573 23.7585 94.1315C24.0624 94.1058 24.358 94.0198 24.6284 93.8786C24.8987 93.7373 25.1383 93.5436 25.3333 93.3086C25.5282 93.0737 25.6747 92.8023 25.764 92.5102C25.8534 92.2181 25.8838 91.9111 25.8537 91.607C25.8236 91.303 25.7334 91.008 25.5885 90.7392C25.4436 90.4704 25.2468 90.2331 25.0095 90.0412C24.7723 89.8493 24.4993 89.7066 24.2065 89.6213C20.3903 88.4464 16.8908 86.4167 13.9731 83.686C11.0553 80.9554 8.79581 77.5952 7.3656 73.86C5.93538 70.1249 5.37195 66.1125 5.71797 62.1269C6.06399 58.1412 7.31039 54.2867 9.3628 50.8551C11.4152 47.4236 14.2198 44.5049 17.5643 42.3202C20.9088 40.1355 24.7054 38.7419 28.6668 38.245C29.1668 38.1823 29.6678 38.1341 30.1691 38.1003C31.2481 38.0276 32.1932 37.3039 32.4555 36.2548L32.86 34.6365Z"/>
  </mask>
  <path class="cls-1" fill-rule="evenodd" clip-rule="evenodd" d="M32.86 34.6365C33.0138 34.0216 32.5626 33.4203 31.9288 33.422C24.5216 33.4194 17.3596 36.0819 11.7461 40.9248C6.13254 45.7677 2.44059 52.4693 1.34201 59.81C0.243426 67.1507 1.81122 74.6427 5.76013 80.9227C9.70903 87.2028 15.7766 91.8534 22.8587 94.0284C23.1489 94.1222 23.4547 94.1573 23.7585 94.1315C24.0624 94.1058 24.358 94.0198 24.6284 93.8786C24.8987 93.7373 25.1383 93.5436 25.3333 93.3086C25.5282 93.0737 25.6747 92.8023 25.764 92.5102C25.8534 92.2181 25.8838 91.9111 25.8537 91.607C25.8236 91.303 25.7334 91.008 25.5885 90.7392C25.4436 90.4704 25.2468 90.2331 25.0095 90.0412C24.7723 89.8493 24.4993 89.7066 24.2065 89.6213C20.3903 88.4464 16.8908 86.4167 13.9731 83.686C11.0553 80.9554 8.79581 77.5952 7.3656 73.86C5.93538 70.1249 5.37195 66.1125 5.71797 62.1269C6.06399 58.1412 7.31039 54.2867 9.3628 50.8551C11.4152 47.4236 14.2198 44.5049 17.5643 42.3202C20.9088 40.1355 24.7054 38.7419 28.6668 38.245C29.1668 38.1823 29.6678 38.1341 30.1691 38.1003C31.2481 38.0276 32.1932 37.3039 32.4555 36.2548L32.86 34.6365Z" fill="#BBDA50"/>
  <path class="cls-1" d="M11.7461 40.9248L11.4617 40.5952L11.7461 40.9248ZM1.34201 59.81L1.77255 59.8744L1.34201 59.81ZM5.76013 80.9227L6.12866 80.691L5.76013 80.9227ZM22.8587 94.0284L22.9926 93.6141L22.9865 93.6123L22.8587 94.0284ZM23.7585 94.1315L23.7218 93.6978H23.7218L23.7585 94.1315ZM24.6284 93.8786L24.4267 93.4927L24.4267 93.4927L24.6284 93.8786ZM25.3333 93.3086L25.6683 93.5867L25.6683 93.5867L25.3333 93.3086ZM25.764 92.5102L25.3477 92.3829L25.764 92.5102ZM25.8537 91.607L26.2869 91.5641L26.2869 91.5641L25.8537 91.607ZM25.5885 90.7392L25.2053 90.9458L25.5885 90.7392ZM25.0095 90.0412L24.7358 90.3797H24.7358L25.0095 90.0412ZM24.2065 89.6213L24.0784 90.0375L24.0849 90.0393L24.2065 89.6213ZM13.9731 83.686L14.2705 83.3682H14.2705L13.9731 83.686ZM7.3656 73.86L7.77215 73.7044L7.3656 73.86ZM5.71797 62.1269L6.15168 62.1645L5.71797 62.1269ZM9.3628 50.8551L9.73641 51.0786L9.3628 50.8551ZM17.5643 42.3202L17.8024 42.6847L17.5643 42.3202ZM28.6668 38.245L28.721 38.677L28.6668 38.245ZM30.1691 38.1003L30.1399 37.6659L30.1691 38.1003ZM32.86 34.6365L33.2824 34.7421L32.86 34.6365ZM12.0304 41.2544C17.5649 36.4797 24.626 33.8548 31.9286 33.8573L31.9289 32.9867C24.4172 32.9841 17.1542 35.6841 11.4617 40.5952L12.0304 41.2544ZM1.77255 59.8744C2.85574 52.6366 6.4959 46.0292 12.0304 41.2544L11.4617 40.5952C5.76917 45.5062 2.02545 52.3019 0.911464 59.7456L1.77255 59.8744ZM6.12866 80.691C2.23521 74.4992 0.689371 67.1122 1.77255 59.8744L0.911464 59.7456C-0.202518 67.1892 1.38723 74.7863 5.39159 81.1545L6.12866 80.691ZM22.9865 93.6123C16.0043 91.4679 10.0221 86.8828 6.12866 80.691L5.39159 81.1545C9.39596 87.5227 15.5489 92.2389 22.7309 94.4446L22.9865 93.6123ZM23.7218 93.6978C23.4756 93.7186 23.2278 93.6902 22.9926 93.6142L22.7248 94.4426C23.07 94.5542 23.4338 94.5959 23.7953 94.5653L23.7218 93.6978ZM24.4267 93.4927C24.2076 93.6072 23.968 93.6769 23.7218 93.6978L23.7953 94.5653C24.1567 94.5347 24.5084 94.4324 24.83 94.2644L24.4267 93.4927ZM24.9983 93.0306C24.8402 93.2211 24.6459 93.3782 24.4267 93.4927L24.83 94.2644C25.1515 94.0964 25.4365 93.866 25.6683 93.5867L24.9983 93.0306ZM25.3477 92.3829C25.2752 92.6199 25.1564 92.8401 24.9983 93.0306L25.6683 93.5867C25.9001 93.3074 26.0741 92.9847 26.1803 92.6375L25.3477 92.3829ZM25.4205 91.65C25.4449 91.8967 25.4202 92.1459 25.3477 92.3829L26.1803 92.6375C26.2865 92.2903 26.3227 91.9254 26.2869 91.5641L25.4205 91.65ZM25.2053 90.9458C25.3229 91.1639 25.396 91.4032 25.4205 91.65L26.2869 91.5641C26.2511 91.2028 26.144 90.8521 25.9717 90.5326L25.2053 90.9458ZM24.7358 90.3797C24.9281 90.5353 25.0878 90.7277 25.2053 90.9458L25.9717 90.5326C25.7994 90.213 25.5655 89.9309 25.2833 89.7027L24.7358 90.3797ZM24.0849 90.0393C24.3221 90.1084 24.5434 90.2241 24.7358 90.3797L25.2833 89.7027C25.0012 89.4745 24.6765 89.3048 24.3282 89.2034L24.0849 90.0393ZM13.6756 84.0039C16.6416 86.7797 20.199 88.843 24.0785 90.0374L24.3346 89.2053C20.5816 88.0498 17.1401 86.0537 14.2705 83.3682L13.6756 84.0039ZM6.95904 74.0157C8.41284 77.8125 10.7096 81.2281 13.6756 84.0039L14.2705 83.3682C11.401 80.6826 9.17879 77.378 7.77215 73.7044L6.95904 74.0157ZM5.28427 62.0892C4.93255 66.1405 5.50525 70.219 6.95904 74.0157L7.77215 73.7044C6.36551 70.0308 5.81136 66.0845 6.15168 62.1645L5.28427 62.0892ZM8.98918 50.6317C6.90292 54.1198 5.63598 58.0379 5.28427 62.0892L6.15168 62.1645C6.492 58.2445 7.71787 54.4535 9.73641 51.0786L8.98918 50.6317ZM17.3262 41.9557C13.9264 44.1766 11.0755 47.1435 8.98918 50.6317L9.73641 51.0786C11.755 47.7036 14.5132 44.8332 17.8024 42.6847L17.3262 41.9557ZM28.6127 37.8131C24.5856 38.3182 20.726 39.7348 17.3262 41.9557L17.8024 42.6847C21.0915 40.5361 24.8253 39.1656 28.721 38.677L28.6127 37.8131ZM30.1399 37.6659C29.6302 37.7003 29.121 37.7493 28.6127 37.8131L28.721 38.677C29.2127 38.6153 29.7054 38.5679 30.1984 38.5346L30.1399 37.6659ZM32.8778 36.3603L33.2824 34.7421L32.4377 34.5309L32.0331 36.1492L32.8778 36.3603ZM30.1984 38.5346C31.4477 38.4504 32.5655 37.6097 32.8778 36.3603L32.0331 36.1492C31.8209 36.998 31.0484 37.6047 30.1399 37.6659L30.1984 38.5346ZM31.9299 33.8573C32.2674 33.8564 32.5257 34.1788 32.4377 34.5309L33.2824 34.7421C33.5018 33.8644 32.8578 32.9842 31.9276 32.9867L31.9299 33.8573Z" fill="#BBDA50" mask="url(#path-9-outside-2_205_52)"/>
  <rect class="cls-1 cls-2" x="45.6225" y="106.57" width="6.92586" height="6.5301" stroke-width="2.1767"/>
  <rect class="cls-1 cls-2" x="59.2763" y="106.57" width="6.92586" height="6.5301" stroke-width="2.1767"/>
  <rect class="cls-1 cls-2" x="72.9301" y="106.57" width="6.92586" height="6.5301" stroke-width="2.1767"/>
  <rect class="cls-1 cls-2" x="86.584" y="106.57" width="6.92586" height="6.5301" stroke-width="2.1767"/>
  <rect class="cls-1 cls-2" x="45.6225" y="119.63" width="6.92586" height="6.5301" stroke-width="2.1767"/>
  <rect class="cls-1 cls-2" x="59.2763" y="119.63" width="6.92586" height="6.5301" stroke-width="2.1767"/>
  <rect class="cls-1 cls-2" x="72.9301" y="119.63" width="6.92586" height="6.5301" stroke-width="2.1767"/>
  <rect class="cls-1 cls-2" x="86.584" y="119.63" width="6.92586" height="6.5301" stroke-width="2.1767"/>
</svg>
