<svg width="63" height="63" viewBox="0 0 135 135" fill="none" xmlns="http://www.w3.org/2000/svg">
  <defs>
    <style>
      .cls-1 {
        fill: #156252;
      }
    </style>
  </defs>
  <path class="cls-1" d="M71.6127 51.3063C80.1431 51.3063 87.0835 59.213 87.0835 68.9295C87.0835 78.646 80.1431 86.5527 71.6127 86.5527C63.0823 86.5527 56.1418 78.6475 56.1418 68.9295C56.1418 59.2115 63.0807 51.3063 71.6127 51.3063ZM71.6127 81.9477C77.6095 81.9477 82.4882 76.1148 82.4882 68.9295C82.4882 61.7442 77.6095 55.9112 71.6127 55.9112C65.6158 55.9112 60.7371 61.7519 60.7371 68.9295C60.7371 76.1071 65.6158 81.9477 71.6127 81.9477Z" fill="#146151"/>
  <path class="cls-1" d="M42.2444 80.7933C44.7788 80.769 47.2034 79.7533 49.001 77.9628C49.219 77.7508 49.4768 77.5842 49.7595 77.4727C50.0422 77.3612 50.3441 77.307 50.6478 77.3132C50.9516 77.3194 51.2511 77.3859 51.529 77.5089C51.8069 77.6318 52.0577 77.8088 52.2669 78.0295C52.4761 78.2502 52.6396 78.5103 52.7479 78.7948C52.8561 79.0792 52.907 79.3823 52.8976 79.6866C52.8882 79.9909 52.8186 80.2903 52.693 80.5675C52.5673 80.8446 52.3881 81.0941 52.1656 81.3014C49.5079 83.8956 45.9543 85.363 42.2444 85.3983C33.714 85.3983 26.7736 77.4931 26.7736 67.7751C26.7736 58.0571 33.714 50.1519 42.2444 50.1519C45.9543 50.1872 49.5079 51.6546 52.1656 54.2487C52.3881 54.456 52.5673 54.7055 52.693 54.9827C52.8186 55.2598 52.8882 55.5592 52.8976 55.8635C52.907 56.1678 52.8561 56.4709 52.7479 56.7554C52.6396 57.0398 52.4761 57.2999 52.2669 57.5206C52.0577 57.7414 51.8069 57.9183 51.529 58.0413C51.2511 58.1642 50.9516 58.2307 50.6478 58.2369C50.3441 58.2431 50.0422 58.1889 49.7595 58.0774C49.4768 57.9659 49.219 57.7993 49.001 57.5873C47.2034 55.7968 44.7788 54.7811 42.2444 54.7568C36.2475 54.7568 31.3689 60.5975 31.3689 67.7751C31.3689 74.9527 36.2475 80.7933 42.2444 80.7933Z" fill="#146151"/>
  <path class="cls-1" d="M108.052 84.2503C108.052 84.8609 107.81 85.4466 107.379 85.8784C106.948 86.3102 106.364 86.5527 105.755 86.5527H94.6784C94.1415 86.5532 93.6156 86.4007 93.1619 86.1131C92.7082 85.8255 92.3454 85.4145 92.1158 84.9282C91.8863 84.4419 91.7993 83.9002 91.8652 83.3662C91.9311 82.8323 92.1471 82.3281 92.488 81.9125L100.619 71.9888C100.89 71.6509 101.061 71.2429 101.112 70.8119C101.162 70.3809 101.09 69.9444 100.903 69.5527C100.754 69.2065 100.506 68.9115 100.192 68.7038C99.8774 68.4961 99.5094 68.3847 99.1328 68.3831C98.3884 68.3839 97.6747 68.6806 97.1483 69.2081C96.6219 69.7355 96.3259 70.4507 96.3251 71.1967C96.3251 71.8074 96.083 72.393 95.6521 72.8248C95.2212 73.2566 94.6368 73.4992 94.0274 73.4992C93.418 73.4992 92.8336 73.2566 92.4027 72.8248C91.9718 72.393 91.7298 71.8074 91.7298 71.1967C91.7341 70.2135 91.9326 69.2409 92.3138 68.3349C92.695 67.4288 93.2513 66.6074 93.9506 65.9178C94.65 65.2282 95.4787 64.6841 96.3888 64.3169C97.299 63.9497 98.2727 63.7665 99.2538 63.7781C100.487 63.7985 101.69 64.1701 102.72 64.8496C103.751 65.5291 104.568 66.4885 105.074 67.6156C105.631 68.7918 105.842 70.1025 105.683 71.3944C105.524 72.6864 105.001 73.9063 104.175 74.9114L98.4098 81.9478H105.762C106.37 81.9498 106.953 82.1933 107.382 82.6249C107.811 83.0564 108.052 83.6409 108.052 84.2503Z" fill="#146151"/>
  <path class="cls-1" d="M30.8956 32.3874C34.9366 32.3767 38.9399 33.166 42.6757 34.7099C46.4115 36.2537 49.8063 38.5219 52.665 41.384C53.0972 41.8147 53.341 42.3999 53.3428 43.0107C53.3445 43.6216 53.104 44.2081 52.6742 44.6413C52.2444 45.0744 51.6604 45.3187 51.0509 45.3205C50.4413 45.3222 49.856 45.0812 49.4238 44.6505C46.5937 41.8347 43.1614 39.7011 39.3868 38.4112C35.6123 37.1213 31.5943 36.7089 27.6371 37.2053C23.6799 37.7016 19.8873 39.0937 16.5464 41.2761C13.2055 43.4585 10.4039 46.374 8.35372 49.8019C6.30351 53.2298 5.05845 57.0802 4.7128 61.0616C4.36715 65.043 4.92997 69.051 6.35866 72.7822C7.78735 76.5134 10.0444 79.8699 12.9591 82.5977C15.8737 85.3254 19.3694 87.3529 23.1816 88.5266C23.4741 88.6118 23.7467 88.7543 23.9837 88.946C24.2207 89.1377 24.4173 89.3747 24.5621 89.6433C24.7068 89.9118 24.7969 90.2065 24.827 90.5102C24.8571 90.8139 24.8266 91.1206 24.7374 91.4124C24.6481 91.7042 24.5019 91.9753 24.3071 92.21C24.1124 92.4446 23.873 92.6381 23.6029 92.7793C23.3329 92.9204 23.0375 93.0063 22.7341 93.032C22.4306 93.0577 22.125 93.0227 21.8352 92.929C14.7606 90.7563 8.69958 86.1106 4.75491 79.8373C0.810232 73.564 -0.755886 66.08 0.34152 58.7472C1.43893 51.4143 5.12692 44.7199 10.7344 39.8822C16.3419 35.0445 23.4963 32.3849 30.8956 32.3874Z" fill="#146151"/>
  <path class="cls-1" d="M111.194 92.9659C111.023 93.006 110.848 93.0261 110.673 93.0257C110.108 93.0267 109.563 92.819 109.141 92.4425C108.719 92.0659 108.45 91.5468 108.386 90.9843C108.322 90.4218 108.467 89.8554 108.794 89.3933C109.12 88.9312 109.605 88.6057 110.155 88.4791C113.561 87.6781 116.771 86.1962 119.592 84.1223C122.412 82.0483 124.786 79.4251 126.571 76.4096C128.356 73.3942 129.514 70.0487 129.978 66.5737C130.441 63.0987 130.2 59.5657 129.268 56.1865C128.336 52.8072 126.733 49.6513 124.555 46.9079C122.376 44.1644 119.668 41.89 116.591 40.2208C113.514 38.5516 110.133 37.5221 106.65 37.194C103.167 36.8658 99.6534 37.2457 96.3203 38.311C95.94 38.4332 95.5346 38.4539 95.1439 38.3711C94.7532 38.2884 94.3908 38.105 94.0923 37.8391C93.7939 37.5732 93.5698 37.234 93.4421 36.8548C93.3144 36.4757 93.2874 36.0697 93.364 35.677C93.6867 34.0146 93.8488 32.325 93.848 30.6315C93.8448 24.0624 91.3639 17.7373 86.9027 12.9242C82.4415 8.11105 76.3297 5.16556 69.7925 4.67819C63.2553 4.19082 56.7758 6.19759 51.653 10.2962C46.5302 14.3948 43.1426 20.2824 42.1693 26.7786C42.1253 27.0778 42.0229 27.3653 41.8679 27.6248C41.713 27.8843 41.5086 28.1106 41.2664 28.2909C41.0241 28.4712 40.7488 28.602 40.4562 28.6757C40.1635 28.7493 39.8593 28.7646 39.5608 28.7204C39.2622 28.6763 38.9753 28.5736 38.7164 28.4184C38.4575 28.2631 38.2316 28.0583 38.0517 27.8155C37.8717 27.5728 37.7413 27.2969 37.6677 27.0036C37.5942 26.7104 37.579 26.4055 37.6231 26.1063C38.7654 18.4593 42.7505 11.5277 48.779 6.70157C54.8076 1.87546 62.434 -0.488348 70.1288 0.0841642C77.8237 0.656677 85.0181 4.12318 90.2693 9.78853C95.5206 15.4539 98.4404 22.8992 98.4433 30.6315C98.4433 31.4358 98.4127 32.2417 98.3499 33.0414C102.78 32.1762 107.347 32.3037 111.723 33.4148C116.098 34.526 120.174 36.5932 123.659 39.4684C127.143 42.3436 129.95 45.9557 131.878 50.0456C133.806 54.1356 134.808 58.6023 134.81 63.1257C134.841 70.0479 132.519 76.7742 128.226 82.1978C123.934 87.6213 117.927 91.419 111.194 92.9659Z" fill="#146151"/>
  <path class="cls-1" d="M64.7077 115.403C64.5197 115.793 64.2261 116.121 63.8603 116.351C63.4946 116.581 63.0716 116.703 62.6398 116.703H55.7714V132.698C55.7714 133.308 55.5293 133.894 55.0984 134.326C54.6675 134.758 54.0831 135 53.4737 135C52.8644 135 52.2799 134.758 51.8491 134.326C51.4182 133.894 51.1761 133.308 51.1761 132.698V114.401C51.1761 113.79 51.4182 113.204 51.8491 112.773C52.2799 112.341 52.8644 112.098 53.4737 112.098H57.8852L45.8149 96.8005L33.7446 112.098H38.1561C38.7655 112.098 39.3499 112.341 39.7808 112.773C40.2117 113.204 40.4537 113.79 40.4537 114.401V132.698C40.4537 133.308 40.2117 133.894 39.7808 134.326C39.3499 134.758 38.7655 135 38.1561 135C37.5467 135 36.9623 134.758 36.5314 134.326C36.1005 133.894 35.8584 133.308 35.8584 132.698V116.703H28.9977C28.566 116.703 28.1431 116.581 27.7773 116.352C27.4116 116.122 27.1178 115.794 26.9297 115.404C26.7415 115.015 26.6666 114.581 26.7135 114.151C26.7603 113.721 26.9272 113.313 27.1948 112.973L44.0074 91.6613C44.2224 91.3887 44.4961 91.1685 44.808 91.0169C45.12 90.8654 45.4621 90.7866 45.8088 90.7864C46.1557 90.7864 46.4981 90.8651 46.8104 91.0166C47.1226 91.1681 47.3966 91.3885 47.6117 91.6613L64.4412 112.972C64.7091 113.311 64.8761 113.719 64.9233 114.149C64.9704 114.579 64.8957 115.014 64.7077 115.403Z" fill="#146151"/>
  <path class="cls-1" d="M107.899 115.403C107.711 115.793 107.417 116.121 107.051 116.351C106.686 116.581 106.263 116.703 105.831 116.703H98.9671V132.698C98.9671 133.308 98.7251 133.894 98.2942 134.326C97.8633 134.758 97.2789 135 96.6695 135C96.0601 135 95.4757 134.758 95.0448 134.326C94.6139 133.894 94.3718 133.308 94.3718 132.698V114.401C94.3718 113.79 94.6139 113.204 95.0448 112.773C95.4757 112.341 96.0601 112.098 96.6695 112.098H101.083L89.0015 96.8005L76.9312 112.098H81.3518C81.9612 112.098 82.5456 112.341 82.9765 112.773C83.4074 113.204 83.6495 113.79 83.6495 114.401V132.698C83.6495 133.308 83.4074 133.894 82.9765 134.326C82.5456 134.758 81.9612 135 81.3518 135C80.7425 135 80.1581 134.758 79.7272 134.326C79.2963 133.894 79.0542 133.308 79.0542 132.698V116.703H72.1919C71.7602 116.703 71.3373 116.581 70.9716 116.352C70.6058 116.122 70.312 115.794 70.1239 115.404C69.9357 115.015 69.8608 114.581 69.9077 114.151C69.9546 113.721 70.1214 113.313 70.389 112.973L87.1986 91.6613C87.4135 91.3887 87.6872 91.1685 87.9992 91.0169C88.3111 90.8654 88.6533 90.7866 88.9999 90.7864C89.3466 90.7866 89.6887 90.8654 90.0007 91.0169C90.3127 91.1685 90.5864 91.3887 90.8013 91.6613L107.632 112.972C107.9 113.311 108.067 113.719 108.114 114.149C108.162 114.579 108.087 115.014 107.899 115.403Z" fill="#146151"/>
</svg>
